<?xml version="1.0" encoding="UTF-8" standalone="no"?>
<!-- Created with Inkscape (http://www.inkscape.org/) -->

<svg
   version="1.1"
   id="svg282"
   width="512"
   height="512"
   viewBox="0 0 511.99998 511.99998"
   sodipodi:docname="favicon.svg"
   inkscape:version="1.2.2 (b0a84865, 2022-12-01)"
   xmlns:inkscape="http://www.inkscape.org/namespaces/inkscape"
   xmlns:sodipodi="http://sodipodi.sourceforge.net/DTD/sodipodi-0.dtd"
   xmlns="http://www.w3.org/2000/svg"
   xmlns:svg="http://www.w3.org/2000/svg">
  <defs
     id="defs286" />
  <sodipodi:namedview
     id="namedview284"
     pagecolor="#ffffff"
     bordercolor="#000000"
     borderopacity="0.25"
     inkscape:showpageshadow="2"
     inkscape:pageopacity="0.0"
     inkscape:pagecheckerboard="0"
     inkscape:deskcolor="#d1d1d1"
     showgrid="false"
     inkscape:zoom="0.66612435"
     inkscape:cx="321.26134"
     inkscape:cy="159.12945"
     inkscape:window-width="1470"
     inkscape:window-height="806"
     inkscape:window-x="1080"
     inkscape:window-y="1001"
     inkscape:window-maximized="0"
     inkscape:current-layer="g288" />
  <g
     inkscape:groupmode="layer"
     inkscape:label="Image"
     id="g288">
    <path
       d="m 80.15752,395.1665 c -13.142716,0.031 -25.194738,-2.29434 -36.416058,-7.56589 -7.809466,-3.66874 -16.083292,-10.11258 -20.232585,-16.1455 -10.602731,-15.41602 -9.999716,-27.8348 -2.170752,-45.33396 9.81123,-21.92969 43.683281,-35.72463 63.873775,-22.37291 34.9518,23.11302 73.33526,23.95674 91.21635,22.46472 13.96022,0.31983 25.38086,-5.5861 25.37941,-5.7521 -0.002,-0.16816 -3.21594,-6.57713 -7.14269,-14.24846 -10.46975,-20.45233 -13.04326,-32.8183 -11.97383,-57.53609 1.0749,-24.82849 5.01178,-37.38481 17.6467,-56.2755 12.47305,-18.64885 30.88287,-33.5708 51.79554,-41.98277 5.13444,-2.0652 29.77207,-7.16941 54.75067,-11.34284 32.25965,-5.38989 48.38235,-8.90779 55.6567,-12.14405 9.7911,-4.35625 10.2406,-4.84434 10.2406,-11.12229 v -6.56599 l 7.5693,1.34015 c 8.64069,1.52987 11.46118,1.52254 36.32414,-0.0928 21.48845,-1.39813 28.29719,0.30331 39.97988,9.99125 4.49913,3.73095 16.32068,10.21008 26.26984,14.39816 l 18.0895,7.61448 v 9.21699 c 0,5.06954 -1.20098,12.09432 -2.67133,15.61088 -1.62839,3.89767 -2.67142,12.02572 -2.67142,20.819 0,14.14219 -0.0825,14.40074 -4.00733,13.17686 -9.72611,-3.02972 -12.02386,-4.44136 -12.05667,-7.40722 -0.0206,-2.21604 -1.95007,-0.87486 -6.44549,4.48583 -3.52606,4.20562 -10.26681,9.60086 -14.97982,11.98899 -8.63429,4.37543 -15.25011,11.30644 -12.80772,13.41775 0.72526,0.62726 4.67895,2.43826 8.78533,4.02405 5.19479,12.80979 4.58053,21.14139 4.1105,32.7567 l -3.05469,7.4357 c -3.19303,7.77305 -3.11277,-10.77285 -12.72168,-6.79006 -8.33469,3.45445 -6.24195,-2.65874 -12.58963,-4.14022 -15.31429,6.45767 -22.67044,17.65381 -27.13821,31.37096 -9.02757,12.39186 -10.98176,17.43747 -10.58674,27.33216 0.21046,5.10194 -0.46012,12.36236 -1.47663,16.13446 -2.79811,10.39093 -12.40486,23.61071 -20.89967,28.75887 -4.17746,2.53183 -7.62057,5.19499 -7.65173,5.918 -0.0206,0.7232 4.95286,0.90168 11.07524,0.39925 6.12216,-0.50242 16.26889,-0.38584 22.54839,0.25689 14.69228,1.51017 22.98767,8.21626 24.54746,19.84406 l 1.01413,7.56837 h -103.533 c -56.94319,0 -103.5232,-0.60147 -103.51102,-1.33592 0.0205,-1.19045 11.76893,-33.74164 15.15271,-41.97936 -11.89851,0.50036 -30.96851,9.82856 -45.23749,17.40807 -44.52162,23.64959 -71.35527,26.33205 -104.049669,26.40241 z"
       style="fill:#795548;fill-opacity:1;stroke-width:1.78101"
       id="path437"
       sodipodi:nodetypes="sassscccccsscscsccccscscccccccscccccscscccsccss" />
  </g>
</svg>
