<?xml version="1.0" encoding="UTF-8" standalone="no"?>
<svg
   viewBox="0 0 640 512"
   version="1.1"
   id="svg1"
   sodipodi:docname="icon.svg"
   inkscape:version="1.3.2 (091e20e, 2023-11-25)"
   xmlns:inkscape="http://www.inkscape.org/namespaces/inkscape"
   xmlns:sodipodi="http://sodipodi.sourceforge.net/DTD/sodipodi-0.dtd"
   xmlns="http://www.w3.org/2000/svg"
   xmlns:svg="http://www.w3.org/2000/svg">
  <defs
     id="defs1" />
  <sodipodi:namedview
     id="namedview1"
     pagecolor="#505050"
     bordercolor="#eeeeee"
     borderopacity="1"
     inkscape:showpageshadow="0"
     inkscape:pageopacity="0"
     inkscape:pagecheckerboard="0"
     inkscape:deskcolor="#505050"
     inkscape:zoom="0.4609375"
     inkscape:cx="318.91525"
     inkscape:cy="256"
     inkscape:window-width="1360"
     inkscape:window-height="451"
     inkscape:window-x="0"
     inkscape:window-y="25"
     inkscape:window-maximized="0"
     inkscape:current-layer="svg1" />
  <!--!Font
  Awesome Free 6.6.0 by @fontawesome - https://fontawesome.com License -
  https://fontawesome.com/license/free Copyright 2024 Fonticons, Inc.-->
  <path
     style="fill:#f76192;fill-opacity:1"
     d="M312 32c-13.3 0-24 10.7-24 24s10.7 24 24 24l25.7 0 34.6 64-149.4 0-27.4-38C191 99.7 183.7 96 176 96l-56 0c-13.3 0-24 10.7-24 24s10.7 24 24 24l43.7 0 22.1 30.7-26.6 53.1c-10-2.5-20.5-3.8-31.2-3.8C57.3 224 0 281.3 0 352s57.3 128 128 128c65.3 0 119.1-48.9 127-112l49 0c8.5 0 16.3-4.5 20.7-11.8l84.8-143.5 21.7 40.1C402.4 276.3 384 312 384 352c0 70.7 57.3 128 128 128s128-57.3 128-128s-57.3-128-128-128c-13.5 0-26.5 2.1-38.7 6L375.4 48.8C369.8 38.4 359 32 347.2 32L312 32zM458.6 303.7l32.3 59.7c6.3 11.7 20.9 16 32.5 9.7s16-20.9 9.7-32.5l-32.3-59.7c3.6-.6 7.4-.9 11.2-.9c39.8 0 72 32.2 72 72s-32.2 72-72 72s-72-32.2-72-72c0-18.6 7-35.5 18.6-48.3zM133.2 368l65 0c-7.3 32.1-36 56-70.2 56c-39.8 0-72-32.2-72-72s32.2-72 72-72c1.7 0 3.4 .1 5.1 .2l-24.2 48.5c-9 18.1 4.1 39.4 24.3 39.4zm33.7-48l50.7-101.3 72.9 101.2-.1 .1-123.5 0zm90.6-128l108.5 0L317 274.8 257.4 192z"
     id="path1" />
</svg>
