<?xml version="1.0" encoding="UTF-8" standalone="no"?>
<!-- Created with Inkscape (http://www.inkscape.org/) -->

<svg
   version="1.1"
   id="svg282"
   width="512"
   height="512"
   viewBox="0 0 511.99998 511.99998"
   sodipodi:docname="pwa_icon.svg"
   inkscape:version="1.2.2 (b0a84865, 2022-12-01)"
   xmlns:inkscape="http://www.inkscape.org/namespaces/inkscape"
   xmlns:sodipodi="http://sodipodi.sourceforge.net/DTD/sodipodi-0.dtd"
   xmlns:xlink="http://www.w3.org/1999/xlink"
   xmlns="http://www.w3.org/2000/svg"
   xmlns:svg="http://www.w3.org/2000/svg">
  <defs
     id="defs286">
    <linearGradient
       inkscape:collect="always"
       id="linearGradient1101">
      <stop
         style="stop-color:#ffffff;stop-opacity:1;"
         offset="0"
         id="stop1099" />
      <stop
         style="stop-color:#ffffff;stop-opacity:1;"
         offset="1"
         id="stop1097" />
    </linearGradient>
    <linearGradient
       inkscape:collect="always"
       xlink:href="#linearGradient1101"
       id="linearGradient1103"
       x1="49.865883"
       y1="447.42065"
       x2="455.6998"
       y2="58.145046"
       gradientUnits="userSpaceOnUse" />
  </defs>
  <sodipodi:namedview
     id="namedview284"
     pagecolor="#ffffff"
     bordercolor="#000000"
     borderopacity="0.25"
     inkscape:showpageshadow="2"
     inkscape:pageopacity="0.0"
     inkscape:pagecheckerboard="0"
     inkscape:deskcolor="#d1d1d1"
     showgrid="false"
     inkscape:zoom="0.69447518"
     inkscape:cx="79.196495"
     inkscape:cy="171.35242"
     inkscape:window-width="1470"
     inkscape:window-height="806"
     inkscape:window-x="1080"
     inkscape:window-y="1001"
     inkscape:window-maximized="0"
     inkscape:current-layer="g288" />
  <g
     inkscape:groupmode="layer"
     inkscape:label="Image"
     id="g288">
    <rect
       style="fill:url(#linearGradient1103);fill-opacity:1;stroke:none;stroke-width:7.66001"
       id="rect896"
       width="418.70255"
       height="418.70255"
       x="46.648727"
       y="46.648727"
       rx="40.88892"
       ry="40.182587" />
    <path
       d="m 121.47547,363.98374 c -9.92716,0.0234 -19.03048,-1.733 -27.506341,-5.71479 -5.89877,-2.77113 -12.148285,-7.63839 -15.282393,-12.19527 -8.008619,-11.64426 -7.553141,-21.02461 -1.639643,-34.24235 7.410769,-16.56428 32.995537,-26.98409 48.246137,-16.89905 26.40034,17.45809 55.39273,18.09537 68.89895,16.9684 10.54465,0.24157 19.17106,-4.21938 19.16997,-4.34477 -0.001,-0.12702 -2.42911,-4.96794 -5.39513,-10.76237 -7.90817,-15.44837 -9.85204,-24.78883 -9.04426,-43.45906 0.81192,-18.75384 3.78557,-28.23807 13.32918,-42.50687 9.42134,-14.08616 23.32694,-25.35723 39.12302,-31.71108 3.87822,-1.55993 22.4879,-5.41532 41.35513,-8.56766 24.36686,-4.07117 36.54491,-6.72838 42.03948,-9.17284 7.39557,-3.29043 7.7351,-3.65909 7.7351,-8.40105 v -4.95953 l 5.71736,1.01226 c 6.52662,1.15557 8.65704,1.15003 27.43691,-0.0701 16.23099,-1.05606 21.37387,0.2291 30.19822,7.54675 3.39836,2.81812 12.32759,7.71203 19.84255,10.87544 l 13.66364,5.75149 v 6.96191 c 0,3.82921 -0.90714,9.13528 -2.01774,11.79146 -1.22999,2.94405 -2.01782,9.08346 -2.01782,15.72533 0,10.68211 -0.0623,10.87739 -3.02688,9.95295 -7.34648,-2.28845 -9.08205,-3.35472 -9.10683,-5.59493 -0.0156,-1.67386 -1.47296,-0.66082 -4.86851,3.3883 -2.66336,3.17666 -7.75489,7.25188 -11.31479,9.05571 -6.52179,3.30492 -11.51896,8.54015 -9.67413,10.13491 0.54782,0.47379 3.53418,1.8417 6.63587,3.0395 3.92381,9.6757 3.45984,15.96885 3.10481,24.74231 l -2.30732,5.61645 c -2.41181,5.87126 -2.35118,-8.13712 -9.60914,-5.12879 -6.29549,2.60928 -4.71476,-2.00823 -9.50939,-3.12725 -11.56743,4.87771 -17.12379,13.33456 -20.49846,23.69561 -6.81884,9.36001 -8.29492,13.17114 -7.99654,20.64495 0.15897,3.85368 -0.34755,9.33773 -1.11535,12.18694 -2.11351,7.84863 -9.36983,17.834 -15.78627,21.72259 -3.15538,1.91238 -5.75608,3.92397 -5.77962,4.47007 -0.0156,0.54627 3.74108,0.68108 8.36552,0.30158 4.62429,-0.3795 12.28848,-0.29145 17.0316,0.19403 11.09761,1.14068 17.36341,6.20604 18.54158,14.98893 l 0.76601,5.71665 h -78.20216 c -43.01122,0 -78.19476,-0.45431 -78.18557,-1.00906 0.0156,-0.89919 8.8895,-25.48627 11.44539,-31.70851 -8.98737,0.37794 -23.39161,7.42386 -34.16949,13.14893 -33.62876,17.86339 -53.89718,19.88954 -78.59241,19.94269 z"
       style="fill:#795548;fill-opacity:1;stroke-width:1.34526"
       id="path437"
       sodipodi:nodetypes="sassscccccsscscsccccscscccccccscccccscscccsccss" />
  </g>
</svg>
