<?xml version="1.0" standalone="no"?>
<!DOCTYPE svg PUBLIC "-//W3C//DTD SVG 20010904//EN"
 "http://www.w3.org/TR/2001/REC-SVG-20010904/DTD/svg10.dtd">
<svg version="1.0" xmlns="http://www.w3.org/2000/svg"
 width="700.000000pt" height="700.000000pt" viewBox="0 0 700.000000 700.000000"
 preserveAspectRatio="xMidYMid meet">
<metadata>
Created by potrace 1.14, written by Peter Selinger 2001-2017
</metadata>
<g transform="translate(0.000000,700.000000) scale(0.100000,-0.100000)"
fill="#000000" stroke="none">
<path d="M5149 5398 c0 -2 -2 -38 -3 -80 -2 -48 -8 -83 -17 -94 -22 -27 -165
-90 -259 -114 -105 -27 -89 -23 -245 -55 -144 -28 -179 -35 -280 -51 -16 -2
-52 -9 -80 -14 -50 -10 -350 -64 -415 -75 -182 -30 -410 -91 -492 -132 -15 -7
-29 -13 -30 -12 -4 2 -210 -124 -230 -139 -7 -7 -40 -33 -73 -60 -72 -58 -186
-172 -223 -221 -15 -20 -30 -38 -33 -41 -16 -13 -130 -193 -165 -260 -35 -67
-74 -157 -80 -185 -1 -5 -9 -37 -18 -70 -9 -33 -19 -82 -22 -110 -4 -27 -8
-52 -9 -55 -6 -9 -17 -235 -18 -332 0 -88 10 -225 18 -258 2 -8 7 -31 10 -50
13 -76 72 -224 156 -394 49 -98 88 -180 87 -182 -10 -10 -117 -45 -183 -60
-117 -26 -491 -27 -665 0 -91 14 -124 20 -209 42 -181 46 -397 136 -524 217
-31 20 -60 37 -64 37 -3 0 -14 6 -22 14 -28 25 -142 57 -214 61 -173 9 -356
-56 -503 -179 -77 -64 -127 -131 -171 -226 -98 -213 -98 -392 0 -562 116 -202
334 -334 632 -382 92 -15 466 -15 585 -1 105 13 295 46 350 61 30 8 64 17 74
19 126 29 361 126 646 269 135 68 274 136 310 151 36 15 79 33 95 40 50 22
158 53 208 60 l47 7 -14 -38 c-8 -22 -31 -82 -51 -134 -20 -52 -43 -113 -50
-135 -7 -22 -31 -92 -54 -155 -22 -63 -41 -120 -41 -126 0 -12 26 -13 370 -20
153 -3 2430 -7 2519 -5 l34 1 -7 48 c-13 98 -18 118 -41 162 -52 101 -157 158
-325 176 -58 6 -289 6 -395 0 -86 -5 -85 8 8 70 171 115 304 302 334 469 5 28
10 100 12 160 4 169 21 225 109 353 24 34 50 81 58 105 58 168 193 323 337
385 41 18 49 16 93 -24 34 -30 44 -34 74 -29 110 18 104 19 136 -18 16 -19 37
-49 47 -67 21 -39 25 -35 59 46 24 56 26 70 23 200 -1 76 -7 159 -14 184 -26
98 -45 140 -65 146 -48 15 -104 45 -109 58 -12 31 76 118 176 172 82 46 179
125 237 192 54 64 68 70 81 33 11 -30 61 -58 156 -87 34 -10 44 -10 53 1 7 8
12 75 15 169 3 136 7 188 20 256 2 8 9 29 15 45 23 58 37 163 36 261 l-1 98
-100 43 c-55 23 -118 49 -140 59 -152 63 -320 158 -427 241 -124 95 -222 119
-447 109 -495 -21 -495 -21 -663 10 -16 3 -28 4 -29 2z"/>
</g>
</svg>
